<?xml version="1.0" standalone="no"?>
<!DOCTYPE svg PUBLIC "-//W3C//DTD SVG 20010904//EN"
 "http://www.w3.org/TR/2001/REC-SVG-20010904/DTD/svg10.dtd">
<svg version="1.0" xmlns="http://www.w3.org/2000/svg"
 width="70.000000pt" height="70.000000pt" viewBox="0 0 70.000000 70.000000"
 preserveAspectRatio="xMidYMid meet">
<metadata>
Created by potrace 1.14, written by Peter Selinger 2001-2017
</metadata>
<g transform="translate(0.000000,70.000000) scale(0.100000,-0.100000)"
fill="#000000" stroke="none">
<path d="M330 570 l-35 -5 0 -202 c0 -177 2 -203 15 -203 13 0 16 14 15 77 l0
78 40 5 c55 7 76 49 71 137 -5 97 -32 124 -106 113z m65 -62 c14 -14 15 -94 2
-113 -16 -21 -66 -29 -68 -11 -4 26 -5 122 -2 128 4 7 60 4 68 -4z"/>
<path d="M590 560 c-29 -29 -35 -62 -35 -205 0 -111 3 -135 19 -162 41 -67 95
-41 117 54 10 45 -16 45 -35 0 -18 -43 -44 -44 -62 -2 -17 43 -14 236 5 259
21 25 41 19 57 -19 9 -22 19 -32 28 -29 21 8 -1 80 -32 104 -31 25 -37 25 -62
0z"/>
<path d="M72 498 c-6 -40 -14 -84 -17 -98 -3 -14 -9 -50 -15 -80 -14 -75 -19
-100 -26 -133 -5 -24 -3 -28 12 -25 10 2 20 12 22 23 9 63 11 65 52 65 41 0
48 -9 53 -67 1 -15 8 -23 20 -23 16 0 18 5 12 27 -4 16 -9 39 -11 53 -3 14
-16 86 -30 160 -14 74 -26 143 -27 153 -1 9 -8 17 -17 17 -13 0 -19 -17 -28
-72z m36 -61 c1 -19 7 -49 12 -68 17 -57 13 -67 -21 -65 -29 1 -30 2 -25 41
13 87 21 125 30 125 1 0 3 -15 4 -33z"/>
</g>
</svg>
